# xmcd
# Copyright (C) 1995-1998 Ti Kan
#
# Track frame offsets:
#       150
#       106641
#       211553
#
# Disc length: 4184 seconds
#
# Revision: 1
# Processed by: cddbd v1.5.2PL0 Copyright (c) Steve Scherf et al.
# Submitted via: CD-Import v1.0
#
DISCID=16105603
DTITLE=Herr Der Ringe - Herr Der Ringe
DYEAR=1900
DGENRE=
TTITLE0=Hd5.1
TTITLE1=Hd5.2
TTITLE2=Hd5.3
EXTD=
EXTT0=
EXTT1=
EXTT2=
PLAYORDER=
